{"accessors" : [{"bufferView" : 0, "byteOffset" : 0, "componentType" : 5123, "count" : 29652, "type" : "SCALAR", "max" : [24791], "min" : [0]}, {"bufferView" : 1, "byteOffset" : 0, "componentType" : 5126, "count" : 24792, "type" : "VEC3", "max" : [7.559235095977783, 0.1899999976158142, 0.007358351722359657], "min" : [0.017660044133663177, -0.1899999976158142, -0.5651214122772217], "name" : "POSITION"}, {"bufferView" : 1, "byteOffset" : 12, "componentType" : 5126, "count" : 24792, "type" : "VEC3", "max" : [1.0000044107437134, 1.0000044107437134, 1.0000044107437134], "min" : [-1.0000044107437134, -1.0000044107437134, -1.0000044107437134], "name" : "NORMAL"}, {"bufferView" : 1, "byteOffset" : 24, "componentType" : 5126, "count" : 24792, "type" : "VEC2", "max" : [1, 1], "min" : [0, 0], "name" : "TEXCOORD_0"}], "asset" : {"generator" : "Aspose.3D 23.9.0", "version" : "2.0"}, "buffers" : [{"uri" : "data:application/octet-stream;base64,", "byteLength" : 1008176}], "bufferViews" : [{"buffer" : 0, "byteOffset" : 0, "byteLength" : 59304, "target" : 34963}, {"buffer" : 0, "byteOffset" : 59308, "byteLength" : 948864, "byteStride" : 32, "target" : 34962}], "meshes" : [{"primitives" : [{"attributes" : {"POSITION" : 1, "NORMAL" : 2, "TEXCOORD_0" : 3}, "indices" : 0, "mode" : 4}]}], "nodes" : [{"matrix" : [1.1920928244535389E-07, 7.105427357601002E-15, -1, 0, 0.9999999999999929, 1.1920928244535389E-07, 1.1920928955078125E-07, 0, 1.1920928955078125E-07, -1, 0, 0, 0, 0, 3.8478617668151855, 1], "mesh" : 0, "name" : "Text"}], "scene" : 0, "scenes" : [{"nodes" : [0]}]}